<svg xmlns="http://www.w3.org/2000/svg" viewBox="0 0 919.17 183.9"><defs><style>.cls-1{fill:#2870bf;}.cls-2{fill:#e3eeff;}</style></defs><title>Light Logo</title><g id="Layer_2" data-name="Layer 2"><g id="Layer_1-2" data-name="Layer 1"><path class="cls-1" d="M112.15.15c9.21,0,8.78-.11,18,0C151,.48,169,13.77,172.69,36.41c3,18.57-6.56,36.44-22.27,43.91-5.37,2.55-7.9,6.35-7.59,12.25.26,4.94,2.9,8.14,7.06,10.3A43.37,43.37,0,0,1,168,120.58c8.57,15.2,6.07,35.52-5.57,48.42-9,10-20.35,14.49-33.43,14.68-18.61.27-27.6.1-46.22.06-8.3,0-11.85-3.72-11.89-12.2a42.66,42.66,0,0,1,0-4.8A12.81,12.81,0,0,1,83.87,155c8-.18,16-.17,24,0,10.13.18,15.93-5.28,15.63-15.87-.11-4,.1-8,0-12-.31-9-5.4-13.92-14.38-14-6.81,0-13.62-.12-20.42,0a23.21,23.21,0,0,1-9.29-1.89c-5.28-2.16-8.26-6.19-8.44-11.94-.16-5.2-.18-10.41,0-15.61.26-7.55,5.38-12.71,12.93-12.89,8-.2,16-.3,24,0,10,.36,16.07-6.46,15.64-15.41-.2-4.19.09-8.41-.06-12.61-.33-9-5.38-13.81-14.44-13.87-6.61,0-13.21-.11-19.82,0a25.1,25.1,0,0,1-8.79-1.43c-6-2.08-9.1-6.64-9.56-13C70.05,3.06,74.87-.45,84.53.05,93.71.52,102.94.15,112.15.15Z"/><path class="cls-1" d="M51.75,155c-3.6,0-7.21-.13-10.8,0a11.26,11.26,0,0,0-11.1,11.09c-.13,2.4.1,4.82-.08,7.2-.48,6.15-4.13,9.9-10.26,10.38a55,55,0,0,1-9.6,0c-5.7-.56-9.26-3.92-9.64-9.62C-.13,168.09,0,14,.21,10.59.69,3.72,4.54.26,11.48.15c2.4,0,4.81,0,7.21,0C25.22.3,29.11,3.8,29.75,10.27c.22,2.18,0,4.4.07,6.6.23,7.14,4.9,11.88,12.14,12q11.1.22,22.21,0a24,24,0,0,1,10.91,2.65,11.07,11.07,0,0,1,6.53,10,150.32,150.32,0,0,1,0,15.6c-.26,4.67-2.51,8.41-7,10.25-4.78,2-9.68,3.55-15,3.45-5.8-.1-11.63.32-17.4-.1-6.61-.49-12.92,5.86-12.48,12.38.41,6,0,12,.12,18,.16,7.32,4.74,11.86,12.08,12s14.81.11,22.21,0a20.82,20.82,0,0,1,9.8,2.19c4.81,2.4,7.83,6,7.76,11.71-.06,4.2,0,8.4,0,12.6-.07,6.75-3,10.59-9.29,13.06C65.67,155.29,58.73,155.09,51.75,155Z"/><path class="cls-2" d="M292.6,159H229V27.38H292.6c31.72,0,48.27,10.05,48.27,33.89,0,14.78-6.11,25-21.08,29.95,17.53,4.54,25,15.18,25,31.92C344.81,148.17,328.66,159,292.6,159ZM289.25,49.65H256.74V80.78h32.51c17.53,0,23.45-4.33,23.45-15.56C312.7,54.18,307.18,49.65,289.25,49.65Zm0,52H256.74v35.07h32.51c20.29,0,27.39-4.93,27.39-17.54C316.64,106.79,309.54,101.67,289.25,101.67Z"/><path class="cls-2" d="M367.47,37.24c0-8.48,5.71-14.39,15-14.39s15.17,5.91,15.17,14.39-5.91,14.38-15.17,14.38S367.47,45.71,367.47,37.24Zm2,121.77V66.4h26.2V159Z"/><path class="cls-2" d="M435.44,130V87.87H416.53V66.4h18.91V40h26.41V66.4h22.66V87.87H461.85v39.61c0,7.49,3.94,11.23,11.62,11.23a67.85,67.85,0,0,0,11-.79v20.3c-4.14,1.38-10.84,2-16.95,2C444.9,160.19,435.44,150.53,435.44,130Z"/><path class="cls-2" d="M571.79,159l-25.42-37L535,134v25H508.74V27.38H535v76.06l35.27-37h30.34l-36.45,37.43L602.53,159Z"/><path class="cls-2" d="M609.82,112.7c0-29.55,21.28-48.27,48.67-48.27,28,0,46.7,16.75,46.7,40.39,0,4.53-1.38,11-3.55,14.78h-65c1.77,13.4,11.82,20.1,27.78,20.1,11,0,20.29-3.75,28.77-9.26l8.08,18.32C690,156.84,676.81,161,661.64,161,633.27,161,609.82,144.82,609.82,112.7Zm26.8-10.44h41.57a4.9,4.9,0,0,0,.2-2c0-9.26-6.31-15.57-19.11-15.57C647.45,84.72,638.78,91.82,636.62,102.26Z"/><path class="cls-2" d="M725.09,149,734.35,130c12.41,7.69,22.66,11,30.54,11,10.05,0,15-2.75,15-8.47,0-4.73-2.76-6.89-11.23-8.47L756,122c-18.72-3.35-28-12-28-26,0-17.14,12.41-31.52,39.21-31.52A69.13,69.13,0,0,1,803.7,74.87L794.84,93c-8.48-4.73-18.13-8.67-26.6-8.67-8.87,0-13.4,2.76-13.4,8.08,0,3.74,2.56,5.91,10.24,7.29l12.61,2.16c18.92,3.35,29,12,29,27.59,0,18.32-14.38,31.53-42.17,31.53A70.11,70.11,0,0,1,725.09,149Z"/><path class="cls-2" d="M893,159v-53.8c0-12-5.12-18.12-15.57-18.12-12.41,0-19.9,8.27-19.9,23.84V159h-26.2V27.38h26.2V76.45c5.72-7.69,14.78-12,28-12,21.09,0,33.7,11.62,33.7,36.84V159Z"/></g></g></svg>